# xmcd
#
# Track frame offsets: 
#        300
#        14478
#        24425
#        36743
#        48595
#        58481
#        69626
#        85781
#        99918
#        107656
#        122131
#        134702
#        146765
#        157395
#        177384
#        191056
#        207192
#        219974
#        239890
#        253632
#        268636
#
# Disc length: 3753 seconds
#
# Revision: 3
# Processed by: cddbd v1.5.2PL0 Copyright (c) Steve Scherf et al.
# Submitted via: ExactAudioCopy v1.0b1
#
DISCID=530ea515
DTITLE=Clifton Chenier - Bon Ton Roulet! And More
DYEAR=1964
DGENRE=Zydeco
TTITLE0=Bon Ton Roulet
TTITLE1=Frog Legs
TTITLE2=If I Ever Get Lucky
TTITLE3=Black Gal
TTITLE4=Long Toes
TTITLE5=Baby, Please Don't Go
TTITLE6=Houston Boogie
TTITLE7=Blues de Ma Negresse
TTITLE8=Sweet Little Doll (Cher Catin)
TTITLE9=Jole Blonde
TTITLE10=Ay, Ai, Ai
TTITLE11=French Town Waltz
TTITLE12=Keep on Scratching
TTITLE13=Black Snake Blues
TTITLE14=Let's Talk It Over
TTITLE15=Walking to Louisiana
TTITLE16=Key to the Highway
TTITLE17=Things Ain't Like They Used to Be
TTITLE18=I Got a Little Girl
TTITLE19=I'm on the Wonder
TTITLE20=Jump the Boogie
EXTD=
EXTT0=
EXTT1=
EXTT2=
EXTT3=
EXTT4=
EXTT5=
EXTT6=
EXTT7=
EXTT8=
EXTT9=
EXTT10=
EXTT11=
EXTT12=
EXTT13=
EXTT14=
EXTT15=
EXTT16=
EXTT17=
EXTT18=
EXTT19=
EXTT20=
PLAYORDER=
